HIERARCHY
ROOT root
{
	OFFSET 0.000000 0.000000 0.000000
	CHANNELS 6 Xposition Yposition Zposition Zrotation Yrotation Xrotation
	JOINT lhip
	{
		OFFSET 0.058581 -0.082280 -0.017664
		CHANNELS 3 Zrotation Yrotation Xrotation
		JOINT lknee
		{
			OFFSET 0.043451 -0.386469 0.008037
			CHANNELS 3 Zrotation Yrotation Xrotation
			JOINT lankle
			{
				OFFSET -0.014790 -0.426874 -0.037428
				CHANNELS 3 Zrotation Yrotation Xrotation
				JOINT ltoe
				{
					OFFSET 0.041054 -0.060286 0.122042
					CHANNELS 3 Zrotation Yrotation Xrotation
					End Site
					{
						OFFSET 0.000000 0.000000 0.000000
					}
				}
			}
		}
	}
	JOINT rhip
	{
		OFFSET -0.060310 -0.090513 -0.013543
		CHANNELS 3 Zrotation Yrotation Xrotation
		JOINT rknee
		{
			OFFSET -0.043257 -0.383688 -0.004843
			CHANNELS 3 Zrotation Yrotation Xrotation
			JOINT rankle
			{
				OFFSET 0.019056 -0.420046 -0.034562
				CHANNELS 3 Zrotation Yrotation Xrotation
				JOINT rtoe
				{
					OFFSET -0.034840 -0.062106 0.130323
					CHANNELS 3 Zrotation Yrotation Xrotation
					End Site
					{
						OFFSET 0.000000 0.000000 0.000000
					}
				}
			}
		}
	}
	JOINT lowerback
	{
		OFFSET 0.004439 0.124404 -0.038385
		CHANNELS 3 Zrotation Yrotation Xrotation
		JOINT upperback
		{
			OFFSET 0.004488 0.137956 0.026820
			CHANNELS 3 Zrotation Yrotation Xrotation
			JOINT chest
			{
				OFFSET -0.002265 0.056032 0.002855
				CHANNELS 3 Zrotation Yrotation Xrotation
				JOINT lowerneck
				{
					OFFSET -0.013390 0.211636 -0.033468
					CHANNELS 3 Zrotation Yrotation Xrotation
					JOINT upperneck
					{
						OFFSET 0.010113 0.088937 0.050410
						CHANNELS 3 Zrotation Yrotation Xrotation
						End Site
						{
							OFFSET 0.000000 0.000000 0.000000
						}
					}
				}
				JOINT lclavicle
				{
					OFFSET 0.071702 0.114000 -0.018898
					CHANNELS 3 Zrotation Yrotation Xrotation
					JOINT lshoulder
					{
						OFFSET 0.122921 0.045205 -0.019046
						CHANNELS 3 Zrotation Yrotation Xrotation
						JOINT lelbow
						{
							OFFSET 0.255332 -0.015649 -0.022946
							CHANNELS 3 Zrotation Yrotation Xrotation
							JOINT lwrist
							{
								OFFSET 0.265709 0.012698 -0.007375
								CHANNELS 3 Zrotation Yrotation Xrotation
								End Site
								{
									OFFSET 0.000000 0.000000 0.000000
								}
							}
						}
					}
				}
				JOINT rclavicle
				{
					OFFSET -0.082954 0.112472 -0.023707
					CHANNELS 3 Zrotation Yrotation Xrotation
					JOINT rshoulder
					{
						OFFSET -0.113228 0.046853 -0.008472
						CHANNELS 3 Zrotation Yrotation Xrotation
						JOINT relbow
						{
							OFFSET -0.260127 -0.014369 -0.031269
							CHANNELS 3 Zrotation Yrotation Xrotation
							JOINT rwrist
							{
								OFFSET -0.269108 0.006794 -0.006027
								CHANNELS 3 Zrotation Yrotation Xrotation
								End Site
								{
									OFFSET 0.000000 0.000000 0.000000
								}
							}
						}
					}
				}
			}
		}
	}
}
MOTION
Frames: 5
Frame Time: 0.033333
0.367352 0.172798 1.005423 89.399195 -1.873004 96.044943 1.058976 3.205822 -2.703877 -2.805576 6.647113 -3.461084 -0.248537 3.881102 -1.279345 0.000000 -0.000000 0.000000 -8.991791 -5.241130 -4.830168 1.081666 -8.575902 2.659848 10.289504 0.933372 -3.915340 0.000000 -0.000000 0.000000 -0.286708 3.241594 0.860609 2.624530 -0.007402 2.217708 1.150561 4.127965 2.498646 0.273425 -2.111480 8.355481 -3.937291 -0.740158 -22.441738 -10.367883 4.922851 -13.533333 -63.279271 3.475611 29.460602 -152.640802 -78.480430 -172.601828 9.137629 -20.617161 -11.129104 6.160407 11.091720 -12.822065 30.583858 54.349401 3.222634 -142.782326 54.849301 -131.811763 -33.288074 20.615965 -10.040245 
0.367436 0.172490 1.004920 89.410394 -1.937987 96.098296 1.032415 3.149624 -2.735973 -2.843082 6.657051 -3.524721 -0.286732 3.926251 -1.488051 0.000000 -0.000000 0.000000 -8.992155 -5.266200 -4.893120 1.060316 -8.574684 2.678075 10.224984 0.751869 -4.114186 0.000000 -0.000000 0.000000 -0.394237 3.066590 1.016948 2.785932 -0.224141 2.165680 1.295716 4.019833 2.524391 0.328891 -2.991608 7.753216 -3.852776 -1.630790 -22.522092 -10.562053 4.928559 -13.573362 -63.408368 3.685505 29.472138 -152.910398 -78.486156 -172.302825 9.337155 -20.643697 -11.136660 6.345127 11.179760 -12.915775 30.210217 53.859378 3.422805 -143.613615 54.046304 -131.881923 -34.292486 20.767142 -9.564588 
0.367434 0.172254 1.004335 89.298807 -1.960729 96.185351 0.984032 3.188656 -2.888528 -2.713056 6.793804 -3.359677 -0.139992 4.020583 -1.537677 0.000000 -0.000000 0.000000 -8.947040 -5.207653 -5.055416 1.002180 -8.532876 2.762418 10.127307 0.620524 -4.347459 0.000000 -0.000000 0.000000 -0.423063 2.806689 1.235094 2.908443 -0.437777 2.103112 1.373978 3.996138 2.416992 0.495959 -3.800594 7.480422 -3.523528 -2.365036 -22.802535 -10.688452 4.880962 -13.514780 -63.536814 3.879162 29.489873 -153.080855 -78.557568 -171.909081 9.392870 -20.777420 -11.441664 6.338729 11.167461 -13.079650 30.479118 53.463983 3.730778 -144.264263 53.343723 -131.242306 -35.021326 21.194977 -9.315800 
0.367454 0.171961 1.003679 89.007724 -1.965618 96.290265 1.001547 3.117962 -2.974372 -2.676803 7.319923 -3.294993 0.234513 4.016239 -1.579859 0.000000 -0.000000 0.000000 -8.895718 -5.114981 -5.308554 0.941318 -8.617038 2.940500 9.945530 0.797154 -4.517667 0.000000 -0.000000 0.000000 -0.442534 2.583175 1.156176 3.057487 -0.661531 2.369063 1.338651 3.810725 2.233936 0.822311 -4.443960 7.491697 -3.006186 -3.036358 -22.999844 -10.709730 4.993010 -13.266928 -63.710929 3.748526 29.492625 -153.110762 -78.652354 -171.609061 9.521787 -20.849689 -11.100088 6.395595 10.615740 -12.991528 32.241570 53.796226 4.200122 -144.595700 53.129250 -131.245191 -33.491874 22.111576 -8.293990 
0.367588 0.171447 1.003463 88.636546 -1.984185 96.307906 0.968144 3.157514 -2.910786 -2.753005 7.161316 -3.390157 0.027503 4.034852 -1.634051 0.000000 -0.000000 0.000000 -8.828181 -5.025406 -5.465727 0.866997 -8.348927 3.029162 9.836728 0.724965 -4.637587 0.000000 -0.000000 0.000000 -0.612082 2.405607 1.284866 3.298914 -0.876186 2.309287 1.475915 3.752285 2.275691 1.017752 -5.369910 7.152738 -2.679272 -3.098630 -22.729986 -10.920388 4.953144 -13.208910 -63.616254 3.531749 29.429023 -151.741610 -78.538548 -172.990607 9.662256 -20.520099 -11.579387 6.959600 10.479115 -12.902461 30.224470 54.480916 2.736863 -144.515217 53.334242 -131.138186 -34.790686 21.726721 -8.522945 
